<?xml version="1.0" standalone="no"?>
<!DOCTYPE svg PUBLIC "-//W3C//DTD SVG 20010904//EN"
 "http://www.w3.org/TR/2001/REC-SVG-20010904/DTD/svg10.dtd">
<svg version="1.0" xmlns="http://www.w3.org/2000/svg"
 width="700.000000pt" height="700.000000pt" viewBox="0 0 700.000000 700.000000"
 preserveAspectRatio="xMidYMid meet">
<metadata>
Created by potrace 1.11, written by Peter Selinger 2001-2013
</metadata>
<g transform="translate(0.000000,700.000000) scale(0.100000,-0.100000)"
fill="#000000" stroke="none">
<path d="M122 6876 c-4 -7 -7 -6670 -3 -6746 1 -13 384 -15 3381 -15 2997 0
3380 2 3381 15 0 8 2 1410 2 3115 l2 3100 -960 0 -960 0 -65 31 c-75 36 -127
83 -163 146 -41 70 -50 115 -50 240 0 113 -1 118 -21 119 -166 6 -4539 2
-4544 -5z m3510 -2766 c149 -31 282 -119 374 -247 125 -173 152 -393 73 -591
-91 -230 -306 -384 -550 -395 -345 -16 -638 252 -653 600 -7 161 57 331 168
451 62 67 193 149 271 169 116 30 220 34 317 13z"/>
</g>
</svg>
